<svg id="Layer_1" data-name="Layer 1" xmlns="http://www.w3.org/2000/svg" xmlns:xlink="http://www.w3.org/1999/xlink" width="24" height="24" viewBox="0 0 24 24"><defs><clipPath id="clip-path"><rect width="24" height="24" fill="none"/></clipPath></defs><g clip-path="url(#clip-path)"><path d="M11.953.047l.094.047L22.688,6.8a.658.658,0,0,1,.187.891.6.6,0,0,1-.8.234l-.094-.047-1.218-.75V20.156a.658.658,0,0,1-.563.657h-.515v1.593a.96.96,0,0,1-.938.844h-.938a.881.881,0,0,1-.89-.844l.047-1.593H6.375v1.593a.894.894,0,0,1-.937.844H4.547a.925.925,0,0,1-.938-.844L3.7,20.813H3.281a.652.652,0,0,1-.609-.563V7.125l-1.219.75a.645.645,0,0,1-.844-.094L.562,7.688A.647.647,0,0,1,.7,6.844L.75,6.8,11.391.094A.6.6,0,0,1,11.953.047Zm-.234,1.359L3.938,6.328V19.5H19.5V6.281Zm4.922,5.766a.5.5,0,0,1,.468.469v6.422a.5.5,0,0,1-.468.468H6.8a.47.47,0,0,1-.469-.468V7.641A.47.47,0,0,1,6.8,7.172Zm-.469.938H7.219v5.484h8.953Z" fill="#666"/></g></svg>