<svg id="Layer_1" data-name="Layer 1" xmlns="http://www.w3.org/2000/svg" width="24" height="24" viewBox="0 0 24 24"><path d="M17.953,3.656a.433.433,0,0,1,.469.282l5.062,7.312a.669.669,0,0,1,.094.281v.047a.546.546,0,0,1-.469.516h-1.64v6.422a.358.358,0,0,1-.094.234.409.409,0,0,1-.422.281H18.469v.422h-.047a.4.4,0,0,1-.375.328H5.484v-.047H5.438l-.047-.046a.046.046,0,0,1-.047-.047L5.3,19.594v-.047H5.25v-.094c-.047,0-.047-.047-.047-.094v-.328H2.578l-.047-.047H2.484v-.046H2.391v-.047H2.344v-.047H2.3V18.75H2.25v-.141L2.2,18.516V12.047H.516A.482.482,0,0,1,0,11.578.592.592,0,0,1,.047,11.3l.047-.047L5.2,3.844A.046.046,0,0,0,5.25,3.8L5.2,3.844,5.25,3.8,5.3,3.75h.047V3.7h.047l.047-.047H17.953Zm-1.359,9.8V18.8h.89V10.969l-5.156-2.11V18.8h.844v-5.25a.369.369,0,0,1,.375-.375h2.719C16.406,13.172,16.594,13.312,16.594,13.453Zm-.7.422H13.922V18.8h1.969ZM11.3,8.859l-5.063,2.11V18.8h.8v-5.25a.334.334,0,0,1,.328-.375h2.719a.313.313,0,0,1,.328.281V18.8H11.3ZM9.7,13.875H7.734V18.8H9.7Zm10.735-1.781H18.469V18h1.969ZM5.2,12.047H3.234V18H5.2ZM17.672,4.641H5.906L1.453,11.062H5.2v-.468a.5.5,0,0,1,.422-.469l6-2.531H12l6.188,2.531v.047h.046l-.046-.047a.045.045,0,0,0,.046.047.046.046,0,0,1,.047.047h.047v.047h.047v.046h.047v.094h.047v.656h3.656Z" fill="#666"/></svg>