<svg id="Layer_1" data-name="Layer 1" xmlns="http://www.w3.org/2000/svg" width="24" height="24" viewBox="0 0 24 24"><path d="M12.2,1.6,23,8.4a.651.651,0,0,1,.2.9.524.524,0,0,1-.8.2h-.1L21,8.7v13a.73.73,0,0,1-.6.7H3.6a.645.645,0,0,1-.6-.6V8.7l-1.3.8a.619.619,0,0,1-.8-.1V9.3A.744.744,0,0,1,1,8.4L11.6,1.7C11.9,1.6,12,1.5,12.2,1.6ZM12,3,4.2,7.9V21.1H19.8V7.9Z" fill="#666"/><path d="M5.6,12.1l1.1,1.1a.785.785,0,0,0,1.1,0l.8-.8a.367.367,0,0,0,.1-.3c0-.2,0-.4.2-.5a.638.638,0,0,1,.6,0l6.9,6.9a.785.785,0,0,0,1.1,0L18,18a.785.785,0,0,0,0-1.1L11,10a.44.44,0,0,1-.1-.5c.1-.1.2-.2.3-.2a.367.367,0,0,1,.3.1l.1.1a.853.853,0,0,0,1.3,0,.934.934,0,0,0,0-1.3L12,7.3a2,2,0,0,0-2.7,0L7.5,9.1a.367.367,0,0,0-.1.3.551.551,0,0,1-.2.5.764.764,0,0,1-.5.2.367.367,0,0,0-.3.1l-.8.8A.785.785,0,0,0,5.6,12.1Zm11.8,5.3-.5.5-6.4-6.4L11,11ZM6.9,10.8A1.324,1.324,0,0,0,8.2,9.5L9.9,7.8a1.217,1.217,0,0,1,1.6,0l.9.9a.212.212,0,0,1-.3.3L12,8.9a1.008,1.008,0,0,0-.9-.3,1.02,1.02,0,0,0-.8.5,1.2,1.2,0,0,0,.1,1.5l-.5.4a1.215,1.215,0,0,0-1.6,0,1.489,1.489,0,0,0-.4.9l-.7.7L6.1,11.5Z" fill="#666"/></svg>