<svg id="Layer_1" data-name="Layer 1" xmlns="http://www.w3.org/2000/svg" width="24" height="24" viewBox="0 0 24 24"><path d="M16.969,2.578l.093.047L23.3,8.391a.6.6,0,0,1,.047.844.637.637,0,0,1-.75.093l-.047-.093-.375-.329v12a.6.6,0,0,1-.516.563H1.922A.558.558,0,0,1,1.359,21V8.906l-.375.329a.527.527,0,0,1-.75.046L.141,9.235a.568.568,0,0,1,0-.75l.047-.094L6.422,2.625a.64.64,0,0,1,.75-.047l.094.094,4.5,4.688,4.5-4.688A.515.515,0,0,1,16.969,2.578ZM6.8,3.891,2.484,7.828V20.344H4.125V14.2a.411.411,0,0,1,.328-.422H9.141a.42.42,0,0,1,.421.422v6.141h1.594V8.438Zm9.891,0-4.36,4.547V20.344h1.641V14.2a.411.411,0,0,1,.328-.422h4.641a.42.42,0,0,1,.421.422v6.141H21V7.828Zm1.874,10.734h-3.8v5.719h3.8Zm-9.843,0H4.969v5.719h3.75Zm.375-5.906a.413.413,0,0,1,.375.422v3.281a.37.37,0,0,1-.375.375H4.5a.383.383,0,0,1-.422-.375V9.141A.42.42,0,0,1,4.5,8.719Zm9.844,0a.419.419,0,0,1,.421.422v3.281a.383.383,0,0,1-.421.375H14.344a.37.37,0,0,1-.375-.375V9.141a.413.413,0,0,1,.375-.422ZM8.672,9.563h-3.8V12h3.8Zm9.89,0h-3.8V12h3.8Z" fill="#666"/></svg>