<svg id="Layer_1" data-name="Layer 1" xmlns="http://www.w3.org/2000/svg" xmlns:xlink="http://www.w3.org/1999/xlink" width="24" height="24" viewBox="0 0 24 24"><defs><clipPath id="clip-path"><rect width="24" height="24" fill="none"/></clipPath></defs><g clip-path="url(#clip-path)"><path d="M16.75,0a.671.671,0,0,1,.7.562V6.047H22.8a.657.657,0,0,1,.656.562V22.781a.671.671,0,0,1-.562.7H1.7a.721.721,0,0,1-.7-.7V6.7a.7.7,0,0,1,.609-.656H7.047V.656A.7.7,0,0,1,7.656,0H16.75Zm-.656,1.359H8.406V6.7a.671.671,0,0,1-.562.7H2.359V22.125h7.875V15.75a.5.5,0,0,1,.422-.469H13.75a.444.444,0,0,1,.469.469v6.375h7.922V7.406H16.75a.7.7,0,0,1-.656-.609V1.359Zm-2.813,14.86H11.219v5.906h2.062ZM7.7,15.281a.444.444,0,0,1,.469.469v3a.483.483,0,0,1-.469.516h-3a.483.483,0,0,1-.469-.516v-3a.444.444,0,0,1,.469-.469Zm12.094,0a.471.471,0,0,1,.469.469v3a.514.514,0,0,1-.469.516H16.75a.514.514,0,0,1-.469-.516v-3a.471.471,0,0,1,.469-.469Zm-12.563.938H5.172v2.062H7.234Zm12.047,0H17.266v2.062h2.015ZM13.75,9.234a.471.471,0,0,1,.469.469V12.75a.471.471,0,0,1-.469.469h-3a.514.514,0,0,1-.516-.469V9.7a.514.514,0,0,1,.516-.469Zm6.047,0a.505.505,0,0,1,.469.469V12.75a.505.505,0,0,1-.469.469H16.75a.505.505,0,0,1-.469-.469V9.7a.505.505,0,0,1,.469-.469ZM7.7,9.234a.471.471,0,0,1,.469.469V12.75a.471.471,0,0,1-.469.469h-3a.471.471,0,0,1-.469-.469V9.7A.471.471,0,0,1,4.7,9.234Zm5.578.985H11.219v2.062h2.062Zm6,0H17.266v2.062h2.015Zm-12.047,0H5.172v2.062H7.234ZM13.75,3.188a.482.482,0,0,1,.469.515v3a.444.444,0,0,1-.469.469h-3a.483.483,0,0,1-.516-.469v-3a.52.52,0,0,1,.516-.515Zm-.469.984H11.219V6.234h2.062Z" fill="#666"/></g></svg>