<svg id="Layer_1" data-name="Layer 1" xmlns="http://www.w3.org/2000/svg" width="24" height="24" viewBox="0 0 24 24"><path d="M2.625,19.875H2.578a.046.046,0,0,1-.047-.047H2.437a.045.045,0,0,0-.046-.047.046.046,0,0,1-.047-.047H2.3v-.046H2.25v-.094H2.2V19.5a.046.046,0,0,1-.047-.047V12.469L.7,12.984a.506.506,0,0,1-.656-.328.465.465,0,0,1,.234-.609L.328,12,6.562,9.8V8.062l-2.531.891a.506.506,0,0,1-.656-.328.539.539,0,0,1,.234-.656H3.7l9.563-3.422h.375l3.281,1.172V4.266a.046.046,0,0,1,.047-.047l-.047.047c0-.047.047-.047.047-.094V4.078l.047-.047V3.984h.046V3.938l.047-.047h.047V3.844H17.2c0-.047,0-.047.047-.047H17.3a.046.046,0,0,1,.047-.047h2.25V3.8h.094v.047h.046l.047.047.047.047a.045.045,0,0,0,.047.046v.047a.046.046,0,0,1,.047.047v.141h.047V6.8L23.2,7.969a.506.506,0,0,1,.328.656.566.566,0,0,1-.609.328h-.094L20.812,8.2V19.547a.046.046,0,0,0-.046.047v.047a.046.046,0,0,0-.047.047h-.047v.046h-.047v.047h-.047l-.047.047h-.093a.173.173,0,0,1-.141.047H2.625Zm3.937-8.953L3.187,12.094v6.7H6.562Zm6.891-5.3L7.594,7.688V18.8h3.7V12.516a.4.4,0,0,1,.328-.375H15.7a.4.4,0,0,1,.375.328V18.8h3.7V7.875Zm1.875,7.266H12.047V18.8h3.281ZM15.7,8.906a.4.4,0,0,1,.375.375v1.594a.37.37,0,0,1-.375.375H11.719a.345.345,0,0,1-.375-.375V9.281a.37.37,0,0,1,.375-.375Zm-.375.75H12.094V10.5h3.234Zm3.563-4.875H18V6.094l.891.328Z" fill="#666"/></svg>